HIERARCHY
ROOT hip
{
  OFFSET 0 90.174 2.4664
  CHANNELS 6 Xposition Yposition Zposition Zrotation Xrotation Yrotation
  JOINT abdomen
  {
    OFFSET 0 -1.186 -1.5018
    CHANNELS 6 Xposition Yposition Zposition Zrotation Xrotation Yrotation
    JOINT abdomen2
    {
      OFFSET 0 9.964 0.2134
      CHANNELS 6 Xposition Yposition Zposition Zrotation Xrotation Yrotation
      JOINT chest
      {
        OFFSET 0 13.134 -3.2573
        CHANNELS 6 Xposition Yposition Zposition Zrotation Xrotation Yrotation
        JOINT neck
        {
          OFFSET 0 20.686 -1.6905
          CHANNELS 6 Xposition Yposition Zposition Zrotation Xrotation Yrotation
          JOINT head
          {
            OFFSET 0 7.238 -0.1237
            CHANNELS 6 Xposition Yposition Zposition Zrotation Xrotation Yrotation
            End Site
            {
              OFFSET 0 0 0
            }
          }
        }
        JOINT lCollar
        {
          OFFSET 1.7069 20.075 5.0056
          CHANNELS 6 Xposition Yposition Zposition Zrotation Xrotation Yrotation
          JOINT lShldr
          {
            OFFSET 13.6458 -0.047 -4.849
            CHANNELS 6 Xposition Yposition Zposition Zrotation Xrotation Yrotation
            JOINT lForeArm
            {
              OFFSET 28.3255 -0.9759 2.2888
              CHANNELS 6 Xposition Yposition Zposition Zrotation Xrotation Yrotation
              JOINT lHand
              {
                OFFSET 22.1583 -0.53 10.8316
                CHANNELS 6 Xposition Yposition Zposition Zrotation Xrotation Yrotation
                JOINT lThumb1
                {
                  OFFSET 0.786 0.112 2.5817
                  CHANNELS 6 Xposition Yposition Zposition Zrotation Xrotation Yrotation
                  JOINT lThumb2
                  {
                    OFFSET 0.3601 -0.878 4.2331
                    CHANNELS 6 Xposition Yposition Zposition Zrotation Xrotation Yrotation
                    JOINT lThumb2_End
                    {
                      OFFSET 1.8127 -1.216 2.2227
                      CHANNELS 6 Xposition Yposition Zposition Zrotation Xrotation Yrotation
                      End Site
                      {
                        OFFSET 0.0181 -0.0122 0.0222
                      }
                    }
                  }
                }
                JOINT lCarpal1
                {
                  OFFSET 0.9571 1.114 1.7695
                  CHANNELS 6 Xposition Yposition Zposition Zrotation Xrotation Yrotation
                  JOINT lIndex1
                  {
                    OFFSET 4.1246 0.487 4.1451
                    CHANNELS 6 Xposition Yposition Zposition Zrotation Xrotation Yrotation
                    JOINT lIndex2
                    {
                      OFFSET 3.4052 -1.454 2.7682
                      CHANNELS 6 Xposition Yposition Zposition Zrotation Xrotation Yrotation
                      JOINT lIndex2_End
                      {
                        OFFSET 1.4531 -1.795 1.2713
                        CHANNELS 6 Xposition Yposition Zposition Zrotation Xrotation Yrotation
                        End Site
                        {
                          OFFSET 0.0145 -0.0179 0.0127
                        }
                      }
                    }
                  }
                  JOINT lMid1
                  {
                    OFFSET 5.6954 0.21 2.1184
                    CHANNELS 6 Xposition Yposition Zposition Zrotation Xrotation Yrotation
                    JOINT lMid2
                    {
                      OFFSET 3.9766 -1.54 2.3863
                      CHANNELS 6 Xposition Yposition Zposition Zrotation Xrotation Yrotation
                      JOINT lMid2_End
                      {
                        OFFSET 1.4042 -1.926 1.125
                        CHANNELS 6 Xposition Yposition Zposition Zrotation Xrotation Yrotation
                        End Site
                        {
                          OFFSET 0.014 -0.0193 0.0113
                        }
                      }
                    }
                  }
                }
                JOINT lCarpal2
                {
                  OFFSET 2.0956 0.66 -0.3894
                  CHANNELS 6 Xposition Yposition Zposition Zrotation Xrotation Yrotation
                  JOINT lRing1
                  {
                    OFFSET 5.0395 -0.09 2.4971
                    CHANNELS 6 Xposition Yposition Zposition Zrotation Xrotation Yrotation
                    JOINT lRing2
                    {
                      OFFSET 3.7921 -1.552 1.4806
                      CHANNELS 6 Xposition Yposition Zposition Zrotation Xrotation Yrotation
                      JOINT lRing2_End
                      {
                        OFFSET 1.4655 -1.808 0.9609
                        CHANNELS 6 Xposition Yposition Zposition Zrotation Xrotation Yrotation
                        End Site
                        {
                          OFFSET 0.0147 -0.0181 0.0096
                        }
                      }
                    }
                  }
                  JOINT lPinky1
                  {
                    OFFSET 4.9141 -1.269 0.3591
                    CHANNELS 6 Xposition Yposition Zposition Zrotation Xrotation Yrotation
                    JOINT lPinky2
                    {
                      OFFSET 3.1477 -1.685 0.8462
                      CHANNELS 6 Xposition Yposition Zposition Zrotation Xrotation Yrotation
                      JOINT lPinky2_End
                      {
                        OFFSET 0.8055 -1.585 0.7955
                        CHANNELS 6 Xposition Yposition Zposition Zrotation Xrotation Yrotation
                        End Site
                        {
                          OFFSET 0.0081 -0.0158 0.008
                        }
                      }
                    }
                  }
                }
              }
            }
          }
        }
        JOINT rCollar
        {
          OFFSET -1.7069 20.075 5.0056
          CHANNELS 6 Xposition Yposition Zposition Zrotation Xrotation Yrotation
          JOINT rShldr
          {
            OFFSET -13.6458 -0.047 -4.849
            CHANNELS 6 Xposition Yposition Zposition Zrotation Xrotation Yrotation
            JOINT rForeArm
            {
              OFFSET -28.3255 -0.9759 2.2888
              CHANNELS 6 Xposition Yposition Zposition Zrotation Xrotation Yrotation
              JOINT rHand
              {
                OFFSET -22.1583 -0.53 10.8316
                CHANNELS 6 Xposition Yposition Zposition Zrotation Xrotation Yrotation
                JOINT rThumb1
                {
                  OFFSET -0.786 0.112 2.5817
                  CHANNELS 6 Xposition Yposition Zposition Zrotation Xrotation Yrotation
                  JOINT rThumb2
                  {
                    OFFSET -0.3601 -0.878 4.2331
                    CHANNELS 6 Xposition Yposition Zposition Zrotation Xrotation Yrotation
                    JOINT rThumb2_End
                    {
                      OFFSET -1.8127 -1.216 2.2227
                      CHANNELS 6 Xposition Yposition Zposition Zrotation Xrotation Yrotation
                      End Site
                      {
                        OFFSET -0.0181 -0.0122 0.0222
                      }
                    }
                  }
                }
                JOINT rCarpal1
                {
                  OFFSET -0.9571 1.114 1.7695
                  CHANNELS 6 Xposition Yposition Zposition Zrotation Xrotation Yrotation
                  JOINT rIndex1
                  {
                    OFFSET -4.1246 0.487 4.1451
                    CHANNELS 6 Xposition Yposition Zposition Zrotation Xrotation Yrotation
                    JOINT rIndex2
                    {
                      OFFSET -3.4052 -1.454 2.7682
                      CHANNELS 6 Xposition Yposition Zposition Zrotation Xrotation Yrotation
                      JOINT rIndex2_End
                      {
                        OFFSET -1.4531 -1.795 1.2713
                        CHANNELS 6 Xposition Yposition Zposition Zrotation Xrotation Yrotation
                        End Site
                        {
                          OFFSET -0.0145 -0.018 0.0127
                        }
                      }
                    }
                  }
                  JOINT rMid1
                  {
                    OFFSET -5.6954 0.21 2.1184
                    CHANNELS 6 Xposition Yposition Zposition Zrotation Xrotation Yrotation
                    JOINT rMid2
                    {
                      OFFSET -3.9766 -1.54 2.3863
                      CHANNELS 6 Xposition Yposition Zposition Zrotation Xrotation Yrotation
                      JOINT rMid2_End
                      {
                        OFFSET -1.4042 -1.926 1.125
                        CHANNELS 6 Xposition Yposition Zposition Zrotation Xrotation Yrotation
                        End Site
                        {
                          OFFSET -0.014 -0.0193 0.0113
                        }
                      }
                    }
                  }
                }
                JOINT rCarpal2
                {
                  OFFSET -2.0956 0.66 -0.3894
                  CHANNELS 6 Xposition Yposition Zposition Zrotation Xrotation Yrotation
                  JOINT rRing1
                  {
                    OFFSET -5.0395 -0.09 2.4971
                    CHANNELS 6 Xposition Yposition Zposition Zrotation Xrotation Yrotation
                    JOINT rRing2
                    {
                      OFFSET -3.7921 -1.552 1.4806
                      CHANNELS 6 Xposition Yposition Zposition Zrotation Xrotation Yrotation
                      JOINT rRing2_End
                      {
                        OFFSET -1.4655 -1.808 0.9609
                        CHANNELS 6 Xposition Yposition Zposition Zrotation Xrotation Yrotation
                        End Site
                        {
                          OFFSET -0.0147 -0.0181 0.0096
                        }
                      }
                    }
                  }
                  JOINT rPinky1
                  {
                    OFFSET -4.9141 -1.269 0.3592
                    CHANNELS 6 Xposition Yposition Zposition Zrotation Xrotation Yrotation
                    JOINT rPinky2
                    {
                      OFFSET -3.1477 -1.685 0.8462
                      CHANNELS 6 Xposition Yposition Zposition Zrotation Xrotation Yrotation
                      JOINT rPinky2_End
                      {
                        OFFSET -0.8055 -1.585 0.7955
                        CHANNELS 6 Xposition Yposition Zposition Zrotation Xrotation Yrotation
                        End Site
                        {
                          OFFSET -0.0081 -0.0158 0.008
                        }
                      }
                    }
                  }
                }
              }
            }
          }
        }
      }
    }
  }
  JOINT lThigh
  {
    OFFSET 8.367 -8.2066 0.5982
    CHANNELS 6 Xposition Yposition Zposition Zrotation Xrotation Yrotation
    JOINT lShin
    {
      OFFSET 2.1923 -43.463 -0.4932
      CHANNELS 6 Xposition Yposition Zposition Zrotation Xrotation Yrotation
      JOINT lFoot
      {
        OFFSET 0.7333 -45.8593 -2.6451
        CHANNELS 6 Xposition Yposition Zposition Zrotation Xrotation Yrotation
        End Site
        {
          OFFSET 2.6618 -4.2699 12.3931
        }
      }
    }
  }
  JOINT rThigh
  {
    OFFSET -8.367 -8.2066 0.5982
    CHANNELS 6 Xposition Yposition Zposition Zrotation Xrotation Yrotation
    JOINT rShin
    {
      OFFSET -2.1923 -43.463 -0.4931
      CHANNELS 6 Xposition Yposition Zposition Zrotation Xrotation Yrotation
      JOINT rFoot
      {
        OFFSET -0.7333 -45.8593 -2.6451
        CHANNELS 6 Xposition Yposition Zposition Zrotation Xrotation Yrotation
        End Site
        {
          OFFSET -2.6618 -4.2699 12.3931
        }
      }
    }
  }
}
MOTION
Frames:	4
Frame Time:	0.0333333
0 90.174 2.4664 0 0 -0 0 -1.186 -1.5018 0 0 -0 0 9.964 0.2134 0 0 -0 0 13.134 -3.2573 0 0 -0 0 20.686 -1.6905 0 0 -0 0 7.238 -0.1237 0 0 -0 1.7069 20.075 5.0056 0 0 -0 13.6458 -0.047 -4.849 1.66051 0.0835086 5.75766 28.3255 -0.9759 2.2888 -0.0175111 0.895433 15.7816 22.1583 -0.53 10.8316 7.95139e-016 -1.98785e-016 -0 0.786 0.112 2.5817 5.46658e-016 -3.97569e-016 -0 0.3601 -0.878 4.2331 5.96354e-016 0 -0 1.8127 -1.216 2.2227 3.97569e-016 1.98785e-016 9.54166e-015 0.9571 1.114 1.7695 1.49089e-016 -3.97569e-016 -0 4.1246 0.487 4.1451 6.4605e-016 0 3.18055e-015 3.4052 -1.454 2.7682 5.96354e-016 0 3.18055e-015 1.4531 -1.795 1.2713 8.94531e-016 -1.98785e-016 6.36111e-015 5.6954 0.21 2.1184 6.4605e-016 0 3.18055e-015 3.9766 -1.54 2.3863 5.96354e-016 0 3.18055e-015 1.4042 -1.926 1.125 8.94531e-016 -1.98785e-016 6.36111e-015 2.0956 0.66 -0.3894 1.49089e-016 -3.97569e-016 -0 5.0395 -0.09 2.4971 6.4605e-016 0 3.18055e-015 3.7921 -1.552 1.4806 5.96354e-016 0 3.18055e-015 1.4655 -1.808 0.9609 8.94531e-016 -1.98785e-016 6.36111e-015 4.9141 -1.269 0.3591 6.4605e-016 0 3.18055e-015 3.1477 -1.685 0.8462 5.96354e-016 0 3.18055e-015 0.8055 -1.585 0.7955 8.94531e-016 -1.98785e-016 6.36111e-015 -1.7069 20.075 5.0056 0 0 -0 -13.6458 -0.047 -4.849 -1.4496 0.0636048 -5.0245 -28.3255 -0.9759 2.2888 -1.74811 1.20616 -16.8394 -22.1583 -0.53 10.8316 -1.19271e-015 1.98785e-016 -3.18055e-015 -0.786 0.112 2.5817 -3.97569e-016 1.98785e-016 -3.18055e-015 -0.3601 -0.878 4.2331 -2.98177e-016 1.98785e-016 -3.18055e-015 -1.8127 -1.216 2.2227 -2.98177e-016 3.97569e-016 -0 -0.9571 1.114 1.7695 4.96962e-016 0 -6.36111e-015 -4.1246 0.487 4.1451 -9.93923e-017 3.97569e-016 -0 -3.4052 -1.454 2.7682 -8.94531e-016 5.96354e-016 -0 -1.4531 -1.795 1.2713 -3.97569e-016 3.97569e-016 -0 -5.6954 0.21 2.1184 -9.93923e-017 3.97569e-016 -0 -3.9766 -1.54 2.3863 -8.94531e-016 5.96354e-016 -0 -1.4042 -1.926 1.125 -3.97569e-016 3.97569e-016 -0 -2.0956 0.66 -0.3894 4.96962e-016 0 -6.36111e-015 -5.0395 -0.09 2.4971 -9.93923e-017 3.97569e-016 -0 -3.7921 -1.552 1.4806 -8.94531e-016 5.96354e-016 -0 -1.4655 -1.808 0.9609 -3.97569e-016 3.97569e-016 -0 -4.9141 -1.269 0.3592 -9.93923e-017 3.97569e-016 -0 -3.1477 -1.685 0.8462 -8.94531e-016 5.96354e-016 -0 -0.8055 -1.585 0.7955 -3.97569e-016 3.97569e-016 -0 8.367 -8.2066 0.5982 -4.66115 -1.03232 0.120763 2.1923 -43.463 -0.4932 0.00990601 1.55097 0.177175 0.7333 -45.8593 -2.6451 4.65196 -0.54114 -0.255042 -8.367 -8.2066 0.5982 4.66115 -1.03222 -0.120763 -2.1923 -43.463 -0.4931 -0.00990459 1.5509 -0.177176 -0.7333 -45.8593 -2.6451 -4.65196 -0.541171 0.255041 
1.45807e-005 21.9417 -13.086 0 3.99975 -0 0 -1.186 -1.5018 0 15.799 -0 0 9.964 0.2134 0 31.598 -0 0 13.134 -3.2573 0 31.598 -0 0 20.686 -1.6905 -0 -27.0003 -0 0 7.238 -0.1237 -0 -12.0013 -0 1.7069 20.075 5.0056 1.05233 -9.94675 6.08845 13.6458 -0.047 -4.849 -75.3944 -3.88573 -94.007 28.3255 -0.9759 2.2888 -5.77627 -18.5739 4.39663 22.1583 -0.53 10.8316 5.6726 13.9009 -1.1009 0.786 0.112 2.5817 -4.37326e-015 -3.18055e-015 6.36111e-015 0.3601 -0.878 4.2331 7.95139e-016 -1.59028e-015 -0 1.8127 -1.216 2.2227 -1.98785e-015 -3.18055e-015 6.36111e-015 0.9571 1.114 1.7695 -3.97569e-015 -1.59028e-015 3.18055e-015 4.1246 0.487 4.1451 -7.95139e-016 -3.18055e-015 3.18055e-015 3.4052 -1.454 2.7682 -3.18055e-015 -1.59028e-015 6.36111e-015 1.4531 -1.795 1.2713 7.95139e-016 0 3.18055e-015 5.6954 0.21 2.1184 -7.95139e-016 -3.18055e-015 3.18055e-015 3.9766 -1.54 2.3863 -3.18055e-015 -1.59028e-015 6.36111e-015 1.4042 -1.926 1.125 7.95139e-016 0 3.18055e-015 2.0956 0.66 -0.3894 -3.97569e-015 -1.59028e-015 3.18055e-015 5.0395 -0.09 2.4971 -7.95139e-016 -3.18055e-015 3.18055e-015 3.7921 -1.552 1.4806 -3.18055e-015 -1.59028e-015 6.36111e-015 1.4655 -1.808 0.9609 7.95139e-016 0 3.18055e-015 4.9141 -1.269 0.3591 -7.95139e-016 -3.18055e-015 3.18055e-015 3.1477 -1.685 0.8462 -3.18055e-015 -1.59028e-015 6.36111e-015 0.8055 -1.585 0.7955 7.95139e-016 0 3.18055e-015 -1.7069 20.075 5.0056 -1.05617 -9.94653 -6.09229 -13.6458 -0.047 -4.849 75.3753 -3.68105 94.7352 -28.3255 -0.9759 2.2888 -9.90869 18.5971 2.54131 -22.1583 -0.53 10.8316 11.286 -26.8451 1.10707 -0.786 0.112 2.5817 7.95139e-016 7.95139e-016 -0 -0.3601 -0.878 4.2331 -7.95139e-016 -7.95139e-016 -6.36111e-015 -1.8127 -1.216 2.2227 7.95139e-016 2.38542e-015 3.18055e-015 -0.9571 1.114 1.7695 -7.95139e-016 7.95139e-016 -3.18055e-015 -4.1246 0.487 4.1451 -1.59028e-015 7.95139e-016 6.36111e-015 -3.4052 -1.454 2.7682 3.97569e-015 7.95139e-016 -6.36111e-015 -1.4531 -1.795 1.2713 1.59028e-015 0 -6.36111e-015 -5.6954 0.21 2.1184 -1.59028e-015 7.95139e-016 6.36111e-015 -3.9766 -1.54 2.3863 3.97569e-015 7.95139e-016 -6.36111e-015 -1.4042 -1.926 1.125 1.59028e-015 0 -6.36111e-015 -2.0956 0.66 -0.3894 -7.95139e-016 7.95139e-016 -3.18055e-015 -5.0395 -0.09 2.4971 -1.59028e-015 7.95139e-016 6.36111e-015 -3.7921 -1.552 1.4806 3.97569e-015 7.95139e-016 -6.36111e-015 -1.4655 -1.808 0.9609 1.59028e-015 0 -6.36111e-015 -4.9141 -1.269 0.3592 -1.59028e-015 7.95139e-016 6.36111e-015 -3.1477 -1.685 0.8462 3.97569e-015 7.95139e-016 -6.36111e-015 -0.8055 -1.585 0.7955 1.59028e-015 0 -6.36111e-015 8.367 -8.2066 0.5982 29.972 -62.7715 13.0765 2.1923 -43.463 -0.4932 178.757 42.0785 -166.293 0.7333 -45.8593 -2.6451 -1.9103 74.4399 9.92222 -8.367 -8.2066 0.5982 -29.9827 -62.7709 -13.0867 -2.1923 -43.463 -0.4931 -178.757 42.0786 166.294 -0.7333 -45.8593 -2.6451 1.91043 74.4402 -9.92233 
1.45807e-005 21.9417 -13.086 0 3.99975 -0 0 -1.186 -1.5018 0 15.8455 -0 0 9.964 0.2134 0 31.6909 -0 0 13.134 -3.2573 0 31.6909 -0 0 20.686 -1.6905 -0 -27.0005 -0 0 7.238 -0.1237 0.0549265 -12.2983 -0.471262 1.7069 20.075 5.0056 1.05233 -9.94675 6.08845 13.6458 -0.047 -4.849 -75.4257 -3.98634 -94.4604 28.3255 -0.9759 2.2888 -5.72227 -18.3024 4.27029 22.1583 -0.53 10.8316 5.67262 13.9009 -1.10091 0.786 0.112 2.5817 2.38542e-015 -1.59028e-015 -3.18055e-015 0.3601 -0.878 4.2331 3.57812e-015 0 3.18055e-015 1.8127 -1.216 2.2227 5.1684e-015 0 -0 0.9571 1.114 1.7695 3.97569e-016 0 -0 4.1246 0.487 4.1451 1.19271e-015 0 3.18055e-015 3.4052 -1.454 2.7682 4.37326e-015 0 -6.36111e-015 1.4531 -1.795 1.2713 3.97569e-016 0 -0 5.6954 0.21 2.1184 1.19271e-015 0 3.18055e-015 3.9766 -1.54 2.3863 4.37326e-015 0 -6.36111e-015 1.4042 -1.926 1.125 3.97569e-016 0 -0 2.0956 0.66 -0.3894 3.97569e-016 0 -0 5.0395 -0.09 2.4971 1.19271e-015 0 3.18055e-015 3.7921 -1.552 1.4806 4.37326e-015 0 -6.36111e-015 1.4655 -1.808 0.9609 3.97569e-016 0 -0 4.9141 -1.269 0.3591 1.19271e-015 0 3.18055e-015 3.1477 -1.685 0.8462 4.37326e-015 0 -6.36111e-015 0.8055 -1.585 0.7955 3.97569e-016 0 -0 -1.7069 20.075 5.0056 -1.05617 -9.94653 -6.09229 -13.6458 -0.047 -4.849 75.4049 -3.78213 95.1881 -28.3255 -0.9759 2.2888 -9.9087 18.5971 2.54131 -22.1583 -0.53 10.8316 10.8112 -26.1102 1.02815 -0.786 0.112 2.5817 -4.58446e-007 -2.35837e-006 -1.847e-007 -0.3601 -0.878 4.2331 -1.21468e-007 3.17861e-006 -3.39885e-007 -1.8127 -1.216 2.2227 -3.08665e-007 -1.27153e-006 1.08683e-006 -0.9571 1.114 1.7695 1.59028e-015 -2.38542e-015 -0 -4.1246 0.487 4.1451 -4.58446e-007 -2.35837e-006 -1.847e-007 -3.4052 -1.454 2.7682 -1.21468e-007 3.17861e-006 -3.39885e-007 -1.4531 -1.795 1.2713 -3.08665e-007 -1.27153e-006 1.08683e-006 -5.6954 0.21 2.1184 -4.58446e-007 -2.35837e-006 -1.847e-007 -3.9766 -1.54 2.3863 -1.21468e-007 3.17861e-006 -3.39885e-007 -1.4042 -1.926 1.125 -3.08665e-007 -1.27153e-006 1.08683e-006 -2.0956 0.66 -0.3894 1.59028e-015 -2.38542e-015 -0 -5.0395 -0.09 2.4971 -4.58446e-007 -2.35837e-006 -1.847e-007 -3.7921 -1.552 1.4806 -1.21468e-007 3.17861e-006 -3.39885e-007 -1.4655 -1.808 0.9609 -3.08665e-007 -1.27153e-006 1.08683e-006 -4.9141 -1.269 0.3592 -4.58446e-007 -2.35837e-006 -1.847e-007 -3.1477 -1.685 0.8462 -1.21468e-007 3.17861e-006 -3.39885e-007 -0.8055 -1.585 0.7955 -3.08665e-007 -1.27153e-006 1.08683e-006 8.367 -8.2066 0.5982 29.972 -62.7715 13.0765 2.1923 -43.463 -0.4932 178.757 42.0785 -166.293 0.7333 -45.8593 -2.6451 -1.9103 74.4399 9.92222 -8.367 -8.2066 0.5982 -29.9827 -62.7709 -13.0867 -2.1923 -43.463 -0.4931 -178.757 42.0786 166.294 -0.7333 -45.8593 -2.6451 1.91043 74.4402 -9.92233 
1.45367e-005 21.9417 -13.086 0 3.99975 -0 0 -1.186 -1.5018 0 15.8919 -0 0 9.964 0.2134 0 31.7839 -0 0 13.134 -3.2573 0 31.7839 -0 0 20.686 -1.6905 -0 -27.0004 -0 0 7.238 -0.1237 0.107464 -12.596 -0.943255 1.7069 20.075 5.0056 1.05233 -9.94674 6.08845 13.6458 -0.047 -4.849 -75.4581 -4.08682 -94.9144 28.3255 -0.9759 2.2888 -5.66771 -18.031 4.14385 22.1583 -0.53 10.8316 5.67259 13.9009 -1.10091 0.786 0.112 2.5817 1.15295e-014 6.36111e-015 -0 0.3601 -0.878 4.2331 1.19271e-014 4.77083e-015 6.36111e-015 1.8127 -1.216 2.2227 1.11319e-014 3.18055e-015 -0 0.9571 1.114 1.7695 0 1.59028e-015 -0 4.1246 0.487 4.1451 8.74653e-015 4.77083e-015 9.54166e-015 3.4052 -1.454 2.7682 1.23246e-014 4.77083e-015 6.36111e-015 1.4531 -1.795 1.2713 9.54166e-015 3.18055e-015 -0 5.6954 0.21 2.1184 8.74653e-015 4.77083e-015 9.54166e-015 3.9766 -1.54 2.3863 1.23246e-014 4.77083e-015 6.36111e-015 1.4042 -1.926 1.125 9.54166e-015 3.18055e-015 -0 2.0956 0.66 -0.3894 0 1.59028e-015 -0 5.0395 -0.09 2.4971 8.74653e-015 4.77083e-015 9.54166e-015 3.7921 -1.552 1.4806 1.23246e-014 4.77083e-015 6.36111e-015 1.4655 -1.808 0.9609 9.54166e-015 3.18055e-015 -0 4.9141 -1.269 0.3591 8.74653e-015 4.77083e-015 9.54166e-015 3.1477 -1.685 0.8462 1.23246e-014 4.77083e-015 6.36111e-015 0.8055 -1.585 0.7955 9.54166e-015 3.18055e-015 -0 -1.7069 20.075 5.0056 -1.05617 -9.94652 -6.09229 -13.6458 -0.047 -4.849 75.4355 -3.88306 95.6415 -28.3255 -0.9759 2.2888 -9.90869 18.5971 2.54131 -22.1583 -0.53 10.8316 10.3395 -25.3731 0.956329 -0.786 0.112 2.5817 3.97569e-015 1.59028e-015 3.18055e-015 -0.3601 -0.878 4.2331 3.97569e-016 1.59028e-015 -6.36111e-015 -1.8127 -1.216 2.2227 2.78299e-015 1.59028e-015 -9.54166e-015 -0.9571 1.114 1.7695 3.57812e-015 7.95139e-016 3.18055e-015 -4.1246 0.487 4.1451 -1.59028e-015 7.95139e-016 -0 -3.4052 -1.454 2.7682 1.76556e-031 1.59028e-015 -6.36111e-015 -1.4531 -1.795 1.2713 1.19271e-015 7.95139e-016 -1.27222e-014 -5.6954 0.21 2.1184 -1.59028e-015 7.95139e-016 -0 -3.9766 -1.54 2.3863 1.76556e-031 1.59028e-015 -6.36111e-015 -1.4042 -1.926 1.125 1.19271e-015 7.95139e-016 -1.27222e-014 -2.0956 0.66 -0.3894 3.57812e-015 7.95139e-016 3.18055e-015 -5.0395 -0.09 2.4971 -1.59028e-015 7.95139e-016 -0 -3.7921 -1.552 1.4806 1.76556e-031 1.59028e-015 -6.36111e-015 -1.4655 -1.808 0.9609 1.19271e-015 7.95139e-016 -1.27222e-014 -4.9141 -1.269 0.3592 -1.59028e-015 7.95139e-016 -0 -3.1477 -1.685 0.8462 1.76556e-031 1.59028e-015 -6.36111e-015 -0.8055 -1.585 0.7955 1.19271e-015 7.95139e-016 -1.27222e-014 8.367 -8.2066 0.5982 29.9718 -62.7716 13.0763 2.1923 -43.463 -0.4932 178.757 42.0785 -166.293 0.7333 -45.8593 -2.6451 -1.91024 74.44 9.92219 -8.367 -8.2066 0.5982 -29.9827 -62.7709 -13.0867 -2.1923 -43.463 -0.4931 -178.757 42.0786 166.294 -0.7333 -45.8593 -2.6451 1.9104 74.4402 -9.92229 
